<?xml version="1.0" encoding="iso-8859-1"?>
<!-- Uploaded to: SVG Repo, www.svgrepo.com, Generator: SVG Repo Mixer Tools -->
<!DOCTYPE svg PUBLIC "-//W3C//DTD SVG 1.1//EN" "http://www.w3.org/Graphics/SVG/1.1/DTD/svg11.dtd">
<svg fill="#000000" version="1.1" id="Capa_1" xmlns="http://www.w3.org/2000/svg" xmlns:xlink="http://www.w3.org/1999/xlink" 
	 width="800px" height="800px" viewBox="0 0 46.814 46.813"
	 xml:space="preserve">
<g>
	<path d="M43.154,15.709v10.354c0,11.247-9.044,20.75-19.747,20.75S3.66,37.311,3.66,26.063V15.709C3.66,11.12,5.47,0.633,21.825,0
		v5.309c-1.779,0.65-3.061,2.344-3.061,4.347v5.684c0,2.003,1.281,3.696,3.061,4.347v4.832c0,0.873,0.709,1.582,1.582,1.582
		s1.582-0.709,1.582-1.582v-4.832c1.778-0.65,3.062-2.344,3.062-4.347V9.657c0-2.003-1.281-3.696-3.062-4.347V0
		C41.345,0.634,43.154,11.12,43.154,15.709z"/>
</g>
</svg>